<?xml version="1.0" encoding="utf-8"?>
<svg viewBox="51.187 42.79 582.027 331.944" width="167" height="95" xmlns="http://www.w3.org/2000/svg">
  <path d="m205.67 217.92c-5.3674 8.3751-26.422 41.13-30.985 53.322-1.8565 4.9602-2.2596 12.638-15.112 18.297-12.852 5.6589-19.726 1.6827-20.163 7.5282-0.43715 5.8456-8.8312 39.429-9.3957 40.364-0.5645 0.93524 6.0618 25.537 9.4086 29.427 3.3467 3.8895 13.378 10.162 16.496 7.027 4.0873-4.109 5.218-11.195 2.9484-14.174-2.2696-2.9786-5.6754-10.097-5.8419-11.438-0.16649-1.3415-0.3219-17.434 3.7057-19.254 4.0276-1.8207 60.13-17.945 70.622-23.198 10.492-5.2531 60.622-47.333 76.232-52.709 15.61-5.3754 60.352-4.999 84.586-7.7881 40.874-4.7234 70.814-24.114 79.789-31.889 13.336-11.553 31.748 1.4362 44.818-2.6966s34.362-9.628 47.638-15.988c13.276-6.3603 30.015-19.538 36.788-21.863 6.7723-2.3248 15.66-2.2249 22.509-2.7898 6.8489-0.56494 12.93-12.797 13.444-16.882 0.51379-4.0857-2.6009-14.559-4.8192-17.353s-12.308-4.5728-13.568-6.1099c-1.7108-2.0856-14.308 8.2276-16.386 8.1658-2.0777-0.06189-6.9203 2.4298-7.6772 3.4142-0.7569 0.98441-5.7089 8.3799-10.416 9.9789-4.7073 1.5991-9.0292 0.13385-11.671 1.0072-2.6422 0.87334-33.63 2.8724-37.67 3.9055-4.0402 1.0331-1.1543 0.2952-6.5028 1.0696-4.4492-6.3756-14.13-16.044-14.82-17.193 9.2046-11.745 9.5537-9.9314 11.107-15.469 4.527 2.2037 11.158 3.0785 12.414 6.1185 1.2564 3.04 1.0116 8.8363 6.9631 6.5237s12.866-7.8371 13.302-10.717c0.43658-2.8797 0.44983-5.058-0.98676-4.2952-1.4366 0.76276-14.131-2.936-17.392-4.8634-3.1704-1.874-5.4651-5.327-4.4127-8.9573s2.534-3.7105 5.1762-4.5838c2.6422-0.87332 6.8993-0.096359 9.1831 0.17623 2.8768 0.3434 7.0956 4.4483 18.036 1.1448 7.1519-2.1594 6.9322-4.1499 6.4544-7.7457-0.96314-7.248-16.346-17.631-18.654-20.007-2.3081-2.3756-6.6579-8.1277-8.7704-9.8151-7.3629-5.8807-14.305-9.8761-26.239-8.9437-2.5893-7.8398-6.3071-16.775-12.425-15.804-6.118 0.9712-10.762 6.5084-8.839 11.948-6.8363 1.3526-20.254 10.913-24.102 14.862-3.8484 3.9498-27.131 24.732-31.248 26.971-4.1174 2.2391-15.302 6.483-19.433 10.9-4.1306 4.4174-16.46 24.574-37.79 34.575-21.331 10.002-49.561 14.452-62.232 16.308-12.672 1.8562-104.33 14.615-104.33 14.615s-23.149-3.9666-40.67 2.6883-70.199 28.429-88.872 20.549c-18.673-7.8794-25.032-21.873-15.574-46.436 9.4569-24.562-15.3-2.4147-15.853 2.274-0.55235 4.6888-7.6366 29.633 1.0183 42.249s31.007 27.068 69.562 18.989 54.101-14.427 64.746-13.194c-7.607 7.4812-28.288 42.822-42.308 47.989-14.019 5.1664-22.536 10.112-29.219 12.019-6.6825 1.9064-15.728 19.048-17.948 25.152-2.2199 6.1037-4.2734 13.549 1.7784 23.469 6.0518 9.9202 11.403 13.386 17.975 9.002 9.0724-6.0527-4.8266-20.273 1.2793-24.997 6.1058-4.7247 22.678-13.312 36.954-17.555 14.276-4.2434 15.238-4.4894 15.238-4.4894m433.51-137.6c2.1636-7.1284-5.7026-20.268-8.6085-22.404s-13.614-0.80447-14.687-2.195c-1.0727-1.3906-11.603 13.542-13.624 14.006-2.0215 0.4645-6.0367 1.8199-6.4972 2.9606-0.46051 1.1407-3.2117 9.5253-7.3152 12.256-4.1035 2.7305-8.4213 2.8913-10.985 3.9165-8.4032 3.3607-27.088 7.0433-27.088 7.0433" fill-rule="evenodd" stroke="#000" stroke-linecap="round" stroke-width="8"/>
</svg>
